<?xml version="1.0" standalone="no"?><svg xmlns="http://www.w3.org/2000/svg" viewBox="0 0 1440 320"><path fill="#f3f4f5" fill-opacity="1" d="M0,128L34.3,122.7C68.6,117,137,107,206,101.3C274.3,96,343,96,411,112C480,128,549,160,617,176C685.7,192,754,192,823,165.3C891.4,139,960,85,1029,69.3C1097.1,53,1166,75,1234,106.7C1302.9,139,1371,181,1406,202.7L1440,224L1440,320L1405.7,320C1371.4,320,1303,320,1234,320C1165.7,320,1097,320,1029,320C960,320,891,320,823,320C754.3,320,686,320,617,320C548.6,320,480,320,411,320C342.9,320,274,320,206,320C137.1,320,69,320,34,320L0,320Z" style="--darkreader-inline-fill: #181a1b;" data-darkreader-inline-fill=""></path></svg>