<svg class="svg-icon" style="width: 1em; height: 1em;vertical-align: middle;fill: currentColor;overflow: hidden;" viewBox="0 0 1024 1024" version="1.1" xmlns="http://www.w3.org/2000/svg"><path d="M785.92 350.72a298.666667 298.666667 0 0 0-570.026667 80.64A170.666667 170.666667 0 0 0 256 768h85.333333a42.666667 42.666667 0 0 0 0-85.333333H256a85.333333 85.333333 0 0 1 0-170.666667 42.666667 42.666667 0 0 0 42.666667-42.666667 213.333333 213.333333 0 0 1 415.146666-68.693333 42.666667 42.666667 0 0 0 33.28 28.586667A128 128 0 0 1 853.333333 554.666667a128 128 0 0 1-128 128 42.666667 42.666667 0 0 0 0 85.333333 213.333333 213.333333 0 0 0 60.586667-417.28z m-234.666667 443.733333a23.893333 23.893333 0 0 0-3.84-7.253333l-5.12-6.826667a49.066667 49.066667 0 0 0-14.08-8.96 42.666667 42.666667 0 0 0-46.506666 8.96l-5.12 6.826667a23.893333 23.893333 0 0 0-3.84 7.253333 27.306667 27.306667 0 0 0-2.56 7.68 64 64 0 0 0 0 8.533334 52.48 52.48 0 0 0 0 8.106666 25.6 25.6 0 0 0 2.56 8.106667 23.893333 23.893333 0 0 0 3.84 7.253333l5.12 6.826667A44.8 44.8 0 0 0 512 853.333333a42.666667 42.666667 0 0 0 16.213333-3.413333 49.066667 49.066667 0 0 0 14.08-8.96l5.12-6.826667a23.893333 23.893333 0 0 0 3.84-7.253333 25.6 25.6 0 0 0 2.56-8.106667A52.48 52.48 0 0 0 554.666667 810.666667a64 64 0 0 0 0-8.533334 27.306667 27.306667 0 0 0-3.413334-7.68zM512 469.333333a128 128 0 0 0-110.933333 64 42.666667 42.666667 0 0 0 15.786666 58.453334 42.666667 42.666667 0 0 0 58.026667-15.786667A42.666667 42.666667 0 0 1 512 554.666667a42.666667 42.666667 0 0 1 0 85.333333 42.666667 42.666667 0 0 0 0 85.333333 128 128 0 0 0 0-256z"  /></svg>